# xmcd
#
# Track frame offsets:
#	150
#	16166
#	30796
#	47195
#	61796
#	77683
#	89929
#	107564
#	123359
#	140785
#	158591
#	173477
#	186113
#
# Disc length: 2696 seconds
#
# Revision: 1
# Processed by: cddbd v1.5.2PL0 Copyright (c) Steve Scherf et al.
# Submitted via: audiograbber 1.83.01
#
DISCID=9c0a860d
DTITLE=Various Artist - CDX Volume 659 (March 12, 2018)
DYEAR=2018
DGENRE=Country
TTITLE0=Travis Denning - David Ashley Parker From Powder Springs 
TTITLE1=Kelsea Ballerini - I Hate Love Songs
TTITLE2=Steve Free - Down the Road
TTITLE3=Melissa Mickelson (featuring 3 and Twenty) - Hold On
TTITLE4=Jodee Lewis - It Ain't Killed Me Yet
TTITLE5=Amy Jack - Jack Of All Trades
TTITLE6=Michael Peterson - Lookin' For Love
TTITLE7=Lucas Hoge - The Power of Garth
TTITLE8=Stephanie Quayle - Selfish
TTITLE9=Bubba T - Texting Texas
TTITLE10=Rusty Rierson - That's How Sure I Am
TTITLE11=Sarah Patrick - The Woman I Am
TTITLE12=Alex Day - Won't Be Love
EXTD=
EXTT0=
EXTT1=
EXTT2=
EXTT3=
EXTT4=
EXTT5=
EXTT6=
EXTT7=
EXTT8=
EXTT9=
EXTT10=
EXTT11=
EXTT12=
PLAYORDER=
